<?xml version="1.0" encoding="UTF-8" standalone="no"?>
<svg width="317px" height="152px" viewBox="0 0 317 152" version="1.1" xmlns="http://www.w3.org/2000/svg" xmlns:xlink="http://www.w3.org/1999/xlink" xmlns:sketch="http://www.bohemiancoding.com/sketch/ns">
    <!-- Generator: Sketch 3.2.2 (9983) - http://www.bohemiancoding.com/sketch -->
    <title>EconomiaLogo</title>
    <desc>Created with Sketch.</desc>
    <defs></defs>
    <g id="Page-1" stroke="none" stroke-width="1" fill="none" fill-rule="evenodd" sketch:type="MSPage">
        <g id="Dashboard" sketch:type="MSArtboardGroup" transform="translate(-392.000000, -483.000000)">
            <g id="economíaMudlos" sketch:type="MSLayerGroup" transform="translate(181.000000, 458.000000)">
                <g id="EconomíaLogo" transform="translate(179.000000, 25.000000)" sketch:type="MSShapeGroup">
                    <g id="EconomiaLogo" transform="translate(34.000000, 0.000000)">
                        <g id="stars" transform="translate(279.696257, 35.182403) rotate(-20.000000) translate(-279.696257, -35.182403) translate(272.192832, 27.682403)" fill="#000B21">
                            <rect id="Rectangle-17" x="9.13972094e-14" y="6.42857143" width="14.792466" height="1.83687396" rx="51"></rect>
                            <path d="M7.45069283,5.68434189e-14 C6.88781196,5.69445285e-14 6.43150685,0.420379923 6.43150685,0.911508143 L6.43150685,13.6599208 C6.43150685,14.1633329 6.90427378,14.571429 7.45069283,14.571429 L7.45069283,14.571429 C8.01357371,14.571429 8.46987881,14.1510491 8.46987881,13.6599208 L8.46987881,0.911508143 C8.46987881,0.408096096 7.99711188,5.68434189e-14 7.45069283,5.68434189e-14 L7.45069283,5.68434189e-14 L7.45069283,5.68434189e-14 Z" id="Rectangle-18"></path>
                        </g>
                        <path d="M18.8743719,53.125 L99.0904523,125 L195.035176,25 L313,78.125" id="Path-9" stroke="#2FAB5F" stroke-width="4" stroke-linecap="round" stroke-linejoin="round"></path>
                        <path d="M0,150 L89.6532663,71.875 L185.59799,112.5 L284.688442,4.6875" id="Path-8" stroke="#000B21" stroke-width="4" stroke-linecap="round" stroke-linejoin="round"></path>
                        <ellipse id="Oval-4" stroke="#FFFFFF" fill="#000B21" cx="89.6532663" cy="73.4375" rx="7.86432161" ry="7.8125"></ellipse>
                        <ellipse id="Oval-4" stroke="#FFFFFF" fill="#000B21" cx="187.170854" cy="110.9375" rx="7.86432161" ry="7.8125"></ellipse>
                        <ellipse id="Oval-4" fill="#000B21" cx="283.115578" cy="6.25" rx="6.29145729" ry="6.25"></ellipse>
                        <ellipse id="Oval-7" fill="#000B21" cx="261.095477" cy="10.9375" rx="3.14572864" ry="3.125"></ellipse>
                    </g>
                </g>
            </g>
        </g>
    </g>
</svg>