<?xml version="1.0" encoding="UTF-8" standalone="no"?>
<svg width="105px" height="65px" viewBox="0 0 105 65" version="1.1" xmlns="http://www.w3.org/2000/svg" xmlns:xlink="http://www.w3.org/1999/xlink" xmlns:sketch="http://www.bohemiancoding.com/sketch/ns">
    <!-- Generator: Sketch 3.2.2 (9983) - http://www.bohemiancoding.com/sketch -->
    <title>Rectangle 746</title>
    <desc>Created with Sketch.</desc>
    <defs></defs>
    <g id="Page-1" stroke="none" stroke-width="1" fill="none" fill-rule="evenodd" sketch:type="MSPage">
        <g id="Publicidad" sketch:type="MSArtboardGroup" transform="translate(-315.000000, -336.000000)" fill="#EEF4F7">
            <g id="Fotogaleria" sketch:type="MSLayerGroup" transform="translate(182.000000, 243.000000)">
                <path d="M133,95.0051134 C133,93.8977198 133.890446,93 135.000984,93 L212.768927,93 C213.87404,93 214.769912,93.8957386 214.769912,95.0051134 L214.769912,109.566315 C214.769912,110.673709 213.879466,111.571429 212.768927,111.571429 L135.000984,111.571429 C133.895871,111.571429 133,110.67569 133,109.566315 L133,95.0051134 Z M133,118.212569 C133,117.108947 133.88845,116.214286 135.002501,116.214286 L170.024048,116.214286 C171.129998,116.214286 172.026549,117.105642 172.026549,118.212569 L172.026549,155.073146 C172.026549,156.176767 171.138098,157.071429 170.024048,157.071429 L135.002501,157.071429 C133.89655,157.071429 133,156.180072 133,155.073146 L133,118.212569 Z M175.743363,118.219399 C175.743363,117.112006 176.631813,116.214286 177.745864,116.214286 L212.76741,116.214286 C213.873361,116.214286 214.769912,117.110024 214.769912,118.219399 L214.769912,132.780601 C214.769912,133.887994 213.881461,134.785714 212.76741,134.785714 L177.745864,134.785714 C176.639913,134.785714 175.743363,133.889976 175.743363,132.780601 L175.743363,118.219399 Z M175.743363,140.505113 C175.743363,139.39772 176.631813,138.5 177.745864,138.5 L212.76741,138.5 C213.873361,138.5 214.769912,139.395739 214.769912,140.505113 L214.769912,155.066315 C214.769912,156.173709 213.881461,157.071429 212.76741,157.071429 L177.745864,157.071429 C176.639913,157.071429 175.743363,156.17569 175.743363,155.066315 L175.743363,140.505113 Z M219.415929,94.998668 C219.415929,93.8948341 220.312278,93 221.422408,93 L235.993522,93 C237.101669,93 238,93.8941241 238,94.998668 L238,156.001332 C238,157.105166 237.103652,158 235.993522,158 L221.422408,158 C220.31426,158 219.415929,157.105876 219.415929,156.001332 L219.415929,94.998668 Z" id="Rectangle-746" sketch:type="MSShapeGroup"></path>
            </g>
        </g>
    </g>
</svg>