<?xml version="1.0" encoding="UTF-8" standalone="no"?>
<svg width="105px" height="65px" viewBox="0 0 105 65" version="1.1" xmlns="http://www.w3.org/2000/svg" xmlns:xlink="http://www.w3.org/1999/xlink" xmlns:sketch="http://www.bohemiancoding.com/sketch/ns">
    <!-- Generator: Sketch 3.2.2 (9983) - http://www.bohemiancoding.com/sketch -->
    <title>Rectangle 746</title>
    <desc>Created with Sketch.</desc>
    <defs></defs>
    <g id="Page-1" stroke="none" stroke-width="1" fill="none" fill-rule="evenodd" sketch:type="MSPage">
        <g id="Publicidad" sketch:type="MSArtboardGroup" transform="translate(-715.000000, -336.000000)" fill="#EEF4F7">
            <g id="Fotogaleria" sketch:type="MSLayerGroup" transform="translate(582.000000, 243.000000)">
                <path d="M133,95.0051134 C133,93.8977198 133.889064,93 134.990914,93 L181.009086,93 C182.108637,93 183,93.8957386 183,95.0051134 L183,109.566315 C183,110.673709 182.110936,111.571429 181.009086,111.571429 L134.990914,111.571429 C133.891363,111.571429 133,110.67569 133,109.566315 L133,95.0051134 Z M187,95.0051134 C187,93.8977198 187.889064,93 188.990914,93 L235.009086,93 C236.108637,93 237,93.8957386 237,95.0051134 L237,109.566315 C237,110.673709 236.110936,111.571429 235.009086,111.571429 L188.990914,111.571429 C187.891363,111.571429 187,110.67569 187,109.566315 L187,95.0051134 Z M175,118.212569 C175,117.108947 175.88845,116.214286 177.002501,116.214286 L212.024048,116.214286 C213.129998,116.214286 214.026549,117.105642 214.026549,118.212569 L214.026549,155.073146 C214.026549,156.176767 213.138098,157.071429 212.024048,157.071429 L177.002501,157.071429 C175.89655,157.071429 175,156.180072 175,155.073146 L175,118.212569 Z M219.415929,117.998283 C219.415929,116.894662 220.312278,116 221.422408,116 L235.993522,116 C237.101669,116 238,116.891356 238,117.998283 L238,154.85886 C238,155.962481 237.103652,156.857143 235.993522,156.857143 L221.422408,156.857143 C220.31426,156.857143 219.415929,155.965786 219.415929,154.85886 L219.415929,117.998283 Z" id="Rectangle-746" sketch:type="MSShapeGroup"></path>
            </g>
        </g>
    </g>
</svg>