<?xml version="1.0" encoding="UTF-8" standalone="no"?>
<svg width="279px" height="192px" viewBox="0 0 279 192" version="1.1" xmlns="http://www.w3.org/2000/svg" xmlns:xlink="http://www.w3.org/1999/xlink" xmlns:sketch="http://www.bohemiancoding.com/sketch/ns">
    <!-- Generator: Sketch 3.2.2 (9983) - http://www.bohemiancoding.com/sketch -->
    <title>Rectangle 746 + adornos + adornos 2</title>
    <desc>Created with Sketch.</desc>
    <defs></defs>
    <g id="Page-1" stroke="none" stroke-width="1" fill="none" fill-rule="evenodd" sketch:type="MSPage">
        <g id="Publicidad,-Posicion" sketch:type="MSArtboardGroup" transform="translate(-825.000000, -273.000000)">
            <g id="Rectangle-746-+-adornos-+-adornos-2" sketch:type="MSLayerGroup" transform="translate(825.000000, 273.000000)">
                <path d="M37,41.0063037 C37,39.8982527 37.895198,39 38.9976693,39 L190.754543,39 C191.857825,39 192.752212,39.8934866 192.752212,41.0063037 L192.752212,72.4222678 C192.752212,73.5303187 191.857014,74.4285714 190.754543,74.4285714 L38.9976693,74.4285714 C37.894387,74.4285714 37,73.5350849 37,72.4222678 L37,41.0063037 Z M37,85.2907286 C37,84.1833898 37.8866172,83.2857143 39.0075496,83.2857143 L109.328734,83.2857143 C110.437473,83.2857143 111.336283,84.1880036 111.336283,85.2907286 L111.336283,159.223557 C111.336283,160.330896 110.449666,161.228571 109.328734,161.228571 L39.0075496,161.228571 C37.8988106,161.228571 37,160.326282 37,159.223557 L37,85.2907286 Z M118.415929,85.2920179 C118.415929,84.183967 119.302546,83.2857143 120.423479,83.2857143 L190.744663,83.2857143 C191.853402,83.2857143 192.752212,84.1792009 192.752212,85.2920179 L192.752212,116.707982 C192.752212,117.816033 191.865595,118.714286 190.744663,118.714286 L120.423479,118.714286 C119.31474,118.714286 118.415929,117.820799 118.415929,116.707982 L118.415929,85.2920179 Z M118.415929,127.806304 C118.415929,126.698253 119.302546,125.8 120.423479,125.8 L190.744663,125.8 C191.853402,125.8 192.752212,126.693487 192.752212,127.806304 L192.752212,159.222268 C192.752212,160.330319 191.865595,161.228571 190.744663,161.228571 L120.423479,161.228571 C119.31474,161.228571 118.415929,160.335085 118.415929,159.222268 L118.415929,127.806304 Z M201.60177,40.9979681 C201.60177,39.8945208 202.494491,39 203.606355,39 L234.995415,39 C236.102517,39 237,39.8921104 237,40.9979681 L237,161.002032 C237,162.105479 236.107279,163 234.995415,163 L203.606355,163 C202.499253,163 201.60177,162.10789 201.60177,161.002032 L201.60177,40.9979681 Z" id="Rectangle-746" fill="#CAD6DB" sketch:type="MSShapeGroup"></path>
                <path d="M7.33063401,22.7664607 L1.04756607,28.0385807 C0.243887572,28.7129471 0.134831704,29.9118362 0.807466683,30.7134513 C1.48479115,31.5206552 2.67815459,31.6171611 3.4833928,30.941486 L9.76646074,25.669366 L15.0385807,31.9524339 C15.7129471,32.7561124 16.9118362,32.8651683 17.7134513,32.1925333 C18.5206552,31.5152089 18.6171611,30.3218454 17.941486,29.5166072 L12.669366,23.2335393 L18.9524339,17.9614193 C19.7561124,17.2870529 19.8651683,16.0881638 19.1925333,15.2865487 C18.5152089,14.4793448 17.3218454,14.3828389 16.5166072,15.058514 L10.2335393,20.330634 L4.96141928,14.0475661 C4.28705295,13.2438876 3.08816384,13.1348317 2.28654868,13.8074667 C1.47934482,14.4847911 1.38283894,15.6781546 2.05851402,16.4833928 L7.33063401,22.7664607 L7.33063401,22.7664607 Z M31,8 C33.209139,8 35,6.209139 35,4 C35,1.790861 33.209139,0 31,0 C28.790861,0 27,1.790861 27,4 C27,6.209139 28.790861,8 31,8 Z M5,53 C7.209139,53 9,51.209139 9,49 C9,46.790861 7.209139,45 5,45 C2.790861,45 1,46.790861 1,49 C1,51.209139 2.790861,53 5,53 Z" id="adornos" fill="#C9D5DB" sketch:type="MSShapeGroup"></path>
                <path d="M251.330634,161.766461 L245.047566,167.038581 C244.243888,167.712947 244.134832,168.911836 244.807467,169.713451 C245.484791,170.520655 246.678155,170.617161 247.483393,169.941486 L253.766461,164.669366 L259.038581,170.952434 C259.712947,171.756112 260.911836,171.865168 261.713451,171.192533 C262.520655,170.515209 262.617161,169.321845 261.941486,168.516607 L256.669366,162.233539 L262.952434,156.961419 C263.756112,156.287053 263.865168,155.088164 263.192533,154.286549 C262.515209,153.479345 261.321845,153.382839 260.516607,154.058514 L254.233539,159.330634 L248.961419,153.047566 C248.287053,152.243888 247.088164,152.134832 246.286549,152.807467 C245.479345,153.484791 245.382839,154.678155 246.058514,155.483393 L251.330634,161.766461 L251.330634,161.766461 Z M275,147 C277.209139,147 279,145.209139 279,143 C279,140.790861 277.209139,139 275,139 C272.790861,139 271,140.790861 271,143 C271,145.209139 272.790861,147 275,147 Z M249,192 C251.209139,192 253,190.209139 253,188 C253,185.790861 251.209139,184 249,184 C246.790861,184 245,185.790861 245,188 C245,190.209139 246.790861,192 249,192 Z" id="adornos-2" fill="#C9D5DB" sketch:type="MSShapeGroup" transform="translate(261.683088, 165.500000) scale(-1, -1) translate(-261.683088, -165.500000) "></path>
            </g>
        </g>
    </g>
</svg>